[Header]
FileType HTR
DataType HTRS
FileVersion 1
NumSegments 22
NumFrames 4
DataFrameRate 24
EulerRotationOrder ZYX
CalibrationUnits mm
RotationUnits Degrees
GlobalAxisofGravity Y
BoneLengthAxis Y
ScaleFactor 1.0
[SegmentNames&Hierarchy]
reference	GLOBAL
Hips	reference
Spine	Hips
Spine1	Spine
Neck	Spine1
Head	Neck
LeftShoulder	Spine1
LeftArm	LeftShoulder
LeftForeArm	LeftArm
LeftHand	LeftForeArm
RightShoulder	Spine1
RightArm	RightShoulder
RightForeArm	RightArm
RightHand	RightForeArm
LeftUpLeg	Hips
LeftLeg	LeftUpLeg
LeftFoot	LeftLeg
LeftToeBase	LeftFoot
RightUpLeg	Hips
RightLeg	RightUpLeg
RightFoot	RightLeg
RightToeBase	RightFoot
[BasePosition]
reference	0	0	0	0	0	0	1
Hips	0	0	0	0	0	0	1
Spine	0	0	0	0	-0	90	1
Spine1	0	0	0	0	0	0	1
Neck	0	0	0	-7.352327771	-7.352327771	90	1
Head	0	0	0	0	-0	90	1
LeftShoulder	0	0	0	0	0	0	1
LeftArm	0	0	0	0	0	0	1
LeftForeArm	0	0	0	0	0	0	1
LeftHand	0	0	0	0	0	0	1
RightShoulder	0	0	0	0	-0	180	1
RightArm	0	0	0	0	-0	180	1
RightForeArm	0	0	0	0	-0	180	1
RightHand	0	0	0	0	-0	180	1
LeftUpLeg	0	0	0	0	-0	-90	1
LeftLeg	0	0	0	0	-0	-90	1
LeftFoot	0	0	0	66.57146043	-66.57146043	-90	1
LeftToeBase	0	0	0	0	-90	0	1
RightUpLeg	0	0	0	0	-0	-90	1
RightLeg	0	0	0	0	-0	-90	1
RightFoot	0	0	0	66.57146043	-66.57146043	-90	1
RightToeBase	0	0	0	0	-90	0	1
[reference]
109	0	0	0	0	-0	0	1.0
110	0	0	0	0	-0	0	1.0
111	0	0	0	0	-0	0	1.0
112	0	0	0	0	-0	0	1.0
[Hips]
109	3.798649788	8.563713074	1.349437118	2.602966309	-134.3418579	0.3578948975	1.0
110	3.619255066	8.54751873	1.345873833	2.930661678	-134.4939575	0.5375494361	1.0
111	3.467715979	8.456077576	1.342372775	4.456995487	-134.132019	0.01201657858	1.0
112	3.380767107	8.430322647	1.354184151	5.88786602	-133.8492889	-0.3014307022	1.0
[Spine]
109	0	0.7457100153	0	-7.774737358	1.870520353	-89.58480072	1.0
110	0	0.7457100153	0	-7.737822056	1.586889744	-89.97009277	1.0
111	0	0.7457100153	0	-8.214862823	0.8668337464	-90.9054184	1.0
112	0	0.7457100153	0	-8.94480896	0.4845225215	-91.50696564	1.0
[Spine1]
109	0	2.140589952	0	2.761397123	0.5750675201	1.521787643	1.0
110	0	2.140589952	0	1.628490806	0.5148457289	0.545145452	1.0
111	0	2.140589952	0	1.080016255	0.2975253463	0.1883413345	1.0
112	0	2.140589952	0	2.084059238	0.1791780293	0.3225912452	1.0
[Neck]
109	0	2.32246995	0	-14.74162674	15.14277935	-91.27272034	1.0
110	0	2.32246995	0	-14.82637596	14.54936409	-88.57994843	1.0
111	0	2.32246995	0	-15.50707626	14.29874039	-86.34596252	1.0
112	0	2.32246995	0	-18.26762009	13.84462738	-86.16902924	1.0
[Head]
109	0	1.409579992	0.1818799973	-0.4569154084	8.313440323	-90.46252441	1.0
110	0	1.409579992	0.1818799973	0.09348106384	7.552859783	-90.63000488	1.0
111	0	1.409579992	0.1818799973	-0.1843668073	7.278053284	-91.89085388	1.0
112	0	1.409579992	0.1818799973	-0.8420930505	6.643859386	-91.45994568	1.0
[LeftShoulder]
109	0.3668199778	1.946700096	-0.02662999928	-16.64840508	-12.9310894	-0.2493331283	1.0
110	0.3668199778	1.946700096	-0.02662999928	-16.88929558	-13.30000687	-0.8695468307	1.0
111	0.3668199778	1.946700096	-0.02662999928	-16.71783829	-13.81797886	-1.504129171	1.0
112	0.3668199778	1.946700096	-0.02662999928	-16.6868	-14.45686722	-1.366731882	1.0
[LeftArm]
109	1.140689969	0	0	41.71007538	-2.750792027	-64.39281464	1.0
110	1.140689969	0	0	40.97852707	-0.6843312979	-65.36027527	1.0
111	1.140689969	0	0	39.96205902	-0.07449147105	-66.23983765	1.0
112	1.140689969	0	0	39.57926178	-1.147745132	-66.91633606	1.0
[LeftForeArm]
109	2.749800205	0	0	61.23907471	-141.9356232	-26.72000122	1.0
110	2.749800205	0	0	62.2060318	-141.9430389	-28.34095764	1.0
111	2.749800205	0	0	65.13824463	-142.3667755	-29.88393784	1.0
112	2.749800205	0	0	66.27496338	-142.3213348	-30.44514465	1.0
[LeftHand]
109	2.295179844	0	0	-9.248488426	-22.26675606	7.020598888	1.0
110	2.295179844	0	0	-11.81914139	-22.25169563	8.112873077	1.0
111	2.295179844	0	0	-12.66189861	-21.94083214	8.530734062	1.0
112	2.295179844	0	0	-12.83072472	-22.55489922	9.748750687	1.0
[RightShoulder]
109	-0.3601199985	1.946700096	-0.02662999928	-8.025141716	6.719181061	173.2015228	1.0
110	-0.3601199985	1.946700096	-0.02662999928	-8.444367409	6.101947784	172.9113922	1.0
111	-0.3601199985	1.946700096	-0.02662999928	-9.898386002	5.246013641	172.2815094	1.0
112	-0.3601199985	1.946700096	-0.02662999928	-8.36912632	4.73216486	172.4885559	1.0
[RightArm]
109	-1.140689969	0	0	55.56253815	12.44827843	-105.0394974	1.0
110	-1.140689969	0	0	56.3651619	11.41362095	-104.1100388	1.0
111	-1.140689969	0	0	56.06994629	10.39653397	-103.1086426	1.0
112	-1.140689969	0	0	55.23973083	12.33124065	-103.0169067	1.0
[RightForeArm]
109	-2.749800205	0	0	-106.243187	43.86053467	32.13735962	1.0
110	-2.749800205	0	0	-105.8461761	44.37206268	32.87549973	1.0
111	-2.749800205	0	0	-106.3856659	44.89011765	32.58522797	1.0
112	-2.749800205	0	0	-105.9619904	43.48762512	32.0316925	1.0
[RightHand]
109	-2.295179844	0	0	0.3266604245	18.61717796	166.2536469	1.0
110	-2.295179844	0	0	0.220284313	18.7746563	166.9922333	1.0
111	-2.295179844	0	0	0.7660269737	19.17640305	166.5284729	1.0
112	-2.295179844	0	0	0.3117791414	18.55941963	166.3860016	1.0
[LeftUpLeg]
109	0.9094099998	0	0	-18.03606415	-1.222324967	100.1138763	1.0
110	0.9094099998	0	0	-17.26100349	-1.154055476	99.25915527	1.0
111	0.9094099998	0	0	-19.36251831	2.504234314	97.23905182	1.0
112	0.9094099998	0	0	-22.86381149	6.174071789	95.521698	1.0
[LeftLeg]
109	0	-4.498080254	0	24.12020111	1.44031322	83.045578	1.0
110	0	-4.498080254	0	23.39565849	4.034831047	83.46770477	1.0
111	0	-4.498080254	0	27.25033569	0.08308047056	81.92185974	1.0
112	0	-4.498080254	0	33.07434082	-5.083155155	79.25053406	1.0
[LeftFoot]
109	0	-3.729400158	0	-58.10450745	101.7941437	-17.71081543	1.0
110	0	-3.729400158	0	-72.81001282	102.9807739	-28.82665825	1.0
111	0	-3.729400158	0	-79.23851013	105.2045288	-30.4506073	1.0
112	0	-3.729400158	0	-77.25343323	106.5155182	-25.77358246	1.0
[LeftToeBase]
109	0	-0.5911099911	1.364109993	0	0	0	1.0
110	0	-0.5911099911	1.364109993	0	0	0	1.0
111	0	-0.5911099911	1.364109993	0	0	0	1.0
112	0	-0.5911099911	1.364109993	0	0	0	1.0
[RightUpLeg]
109	-0.9094099998	0	0	6.770798683	-18.59637642	82.36637115	1.0
110	-0.9094099998	0	0	6.371252537	-15.608284	82.83422089	1.0
111	-0.9094099998	0	0	4.785009384	-13.55910301	83.56941223	1.0
112	-0.9094099998	0	0	1.774600506	-12.03889942	84.57613373	1.0
[RightLeg]
109	0	-4.498080254	0	21.06675148	-4.379455566	85.48853302	1.0
110	0	-4.498080254	0	22.07160187	-2.88111496	85.26862335	1.0
111	0	-4.498080254	0	24.44986725	-2.284272432	83.28662109	1.0
112	0	-4.498080254	0	28.77758026	-1.908721924	81.41178894	1.0
[RightFoot]
109	0	-3.729400158	0	79.87166595	49.07292175	122.640007	1.0
110	0	-3.729400158	0	72.38058472	48.83341217	115.9105072	1.0
111	0	-3.729400158	0	65.3252182	48.37069702	112.3644562	1.0
112	0	-3.729400158	0	58.64291382	47.54338455	108.762207	1.0
[RightToeBase]
109	0	-0.5911099911	1.364109993	0	0	0	1.0
110	0	-0.5911099911	1.364109993	0	0	0	1.0
111	0	-0.5911099911	1.364109993	0	0	0	1.0
112	0	-0.5911099911	1.364109993	0	0	0	1.0
[EndOfFile]
